<?xml version="1.0" standalone="no"?><!DOCTYPE svg PUBLIC "-//W3C//DTD SVG 1.1//EN" "http://www.w3.org/Graphics/SVG/1.1/DTD/svg11.dtd"><svg t="1592715882712" class="icon" viewBox="0 0 1024 1024" version="1.1" xmlns="http://www.w3.org/2000/svg" p-id="2871" xmlns:xlink="http://www.w3.org/1999/xlink" width="200" height="200"><defs><style type="text/css"></style></defs><path d="M931.52 338.24c-86.4-34.56-104-35.84-112-55.68l-37.76-94.08A96 96 0 0 0 692.8 128h-361.6a96 96 0 0 0-88.96 60.48L204.48 282.56c-8 19.84-25.6 21.12-112 55.68A96 96 0 0 0 32 427.2V800a96 96 0 0 0 96 96h768a96 96 0 0 0 96-96V427.2a96 96 0 0 0-60.48-88.96zM512 768a192 192 0 1 1 192-192 192 192 0 0 1-192 192z" fill="#0096ff" p-id="2872"></path></svg>