<?xml version="1.0" standalone="no"?><!DOCTYPE svg PUBLIC "-//W3C//DTD SVG 1.1//EN" "http://www.w3.org/Graphics/SVG/1.1/DTD/svg11.dtd"><svg t="1592716127165" class="icon" viewBox="0 0 1024 1024" version="1.1" xmlns="http://www.w3.org/2000/svg" p-id="6561" xmlns:xlink="http://www.w3.org/1999/xlink" width="200" height="200"><defs><style type="text/css"></style></defs><path d="M896 279.893333h-69.973333l-221.44-231.253333-3.84-3.84a128 128 0 0 0-181.333334 3.84L197.973333 279.893333H128a128 128 0 0 0-128 128V896a128 128 0 0 0 128 128h768a128 128 0 0 0 128-128V407.893333a128 128 0 0 0-128-128z m-414.72-170.666666a42.666667 42.666667 0 0 1 61.44 0l165.12 170.666666H316.16zM938.666667 896a42.666667 42.666667 0 0 1-42.666667 42.666667H128a42.666667 42.666667 0 0 1-42.666667-42.666667V407.893333a42.666667 42.666667 0 0 1 42.666667-42.666666h768a42.666667 42.666667 0 0 1 42.666667 42.666666z" p-id="6562" fill="#0096ff"></path><path d="M682.666667 706.986667h-85.333334V682.666667h75.946667a21.76 21.76 0 0 0 21.333333-21.333334V640a21.333333 21.333333 0 0 0-21.333333-21.333333h-72.533333V597.333333H682.666667a21.333333 21.333333 0 0 0 21.333333-21.333333V554.666667a21.333333 21.333333 0 0 0-21.333333-21.333334h-128a21.333333 21.333333 0 0 0-21.333334 21.333334v197.12a21.333333 21.333333 0 0 0 21.333334 21.333333h128a21.333333 21.333333 0 0 0 21.333333-21.333333v-22.186667a21.333333 21.333333 0 0 0-21.333333-22.613333zM317.44 567.04a103.253333 103.253333 0 0 0-34.986667-28.586667 114.346667 114.346667 0 0 0-97.28 0 100.693333 100.693333 0 0 0-35.413333 28.586667 128 128 0 0 0-20.48 40.106667 155.733333 155.733333 0 0 0-6.4 42.666666A160.853333 160.853333 0 0 0 128 697.173333a125.013333 125.013333 0 0 0 20.48 39.68 100.693333 100.693333 0 0 0 35.413333 28.586667 104.96 104.96 0 0 0 48.64 11.093333 104.106667 104.106667 0 0 0 48.213334-11.093333 100.693333 100.693333 0 0 0 35.413333-28.586667 116.906667 116.906667 0 0 0 20.48-39.68 160.853333 160.853333 0 0 0 6.4-45.226666 155.733333 155.733333 0 0 0-6.4-42.666667 119.04 119.04 0 0 0-19.2-42.24zM213.333333 707.84a42.666667 42.666667 0 0 1-13.226666-12.373333 65.706667 65.706667 0 0 1-8.533334-19.2 118.613333 118.613333 0 0 1-2.986666-24.32 110.933333 110.933333 0 0 1 2.986666-23.893334 68.266667 68.266667 0 0 1 8.533334-19.626666A35.84 35.84 0 0 1 213.333333 597.333333a34.986667 34.986667 0 0 1 18.773334-4.266666 37.12 37.12 0 0 1 18.773333 4.266666 37.973333 37.973333 0 0 1 12.8 11.946667 58.453333 58.453333 0 0 1 8.533333 19.626667 89.6 89.6 0 0 1 2.986667 23.893333 94.72 94.72 0 0 1-2.986667 24.32 56.32 56.32 0 0 1-8.533333 19.2 42.666667 42.666667 0 0 1-12.8 12.373333 42.666667 42.666667 0 0 1-37.546667-0.853333zM450.986667 532.053333H369.066667a21.76 21.76 0 0 0-21.333334 21.333334v197.12a21.333333 21.333333 0 0 0 21.333334 21.333333h25.173333a21.333333 21.333333 0 0 0 21.333333-21.333333V691.2h35.413334a76.373333 76.373333 0 0 0 58.453333-21.76 80.64 80.64 0 0 0 20.48-57.6 79.786667 79.786667 0 0 0-20.48-57.173333 76.8 76.8 0 0 0-58.453333-22.613334z m-35.413334 94.72V597.333333h27.306667a26.026667 26.026667 0 0 1 16.213333 3.413334 17.493333 17.493333 0 0 1 2.986667 11.52 16.213333 16.213333 0 0 1-2.986667 11.52 23.893333 23.893333 0 0 1-16.213333 3.413333zM879.786667 532.053333h-23.466667a21.333333 21.333333 0 0 0-21.333333 21.333334v85.333333l-59.306667-96.426667a21.76 21.76 0 0 0-18.346667-10.24h-26.453333a21.333333 21.333333 0 0 0-21.333333 21.333334v197.12a21.333333 21.333333 0 0 0 21.333333 21.333333h23.466667a21.333333 21.333333 0 0 0 21.333333-21.333333v-85.333334l58.88 94.72a20.906667 20.906667 0 0 0 17.92 10.24h27.306667a21.333333 21.333333 0 0 0 21.333333-21.333333V554.666667a21.333333 21.333333 0 0 0-21.333333-22.613334z" p-id="6563" fill="#0096ff"></path></svg>