<?xml version="1.0" standalone="no"?><!DOCTYPE svg PUBLIC "-//W3C//DTD SVG 1.1//EN" "http://www.w3.org/Graphics/SVG/1.1/DTD/svg11.dtd"><svg t="1592709544471" class="icon" viewBox="0 0 1024 1024" version="1.1" xmlns="http://www.w3.org/2000/svg" p-id="3126" xmlns:xlink="http://www.w3.org/1999/xlink" width="200" height="200"><defs><style type="text/css"></style></defs><path d="M416 704c-6.4 0-9.6 0-16-3.2-9.6-6.4-16-16-16-28.8V352c0-12.8 6.4-22.4 16-28.8s22.4-6.4 32 0l256 166.4c9.6 6.4 16 16 16 28.8 0 9.6-6.4 22.4-16 25.6l-256 156.8c-3.2 3.2-9.6 3.2-16 3.2z m32-294.4v204.8l163.2-99.2-163.2-105.6zM512 960C265.6 960 64 758.4 64 512S265.6 64 512 64s448 201.6 448 448-201.6 448-448 448z m0-832C300.8 128 128 300.8 128 512s172.8 384 384 384 384-172.8 384-384S723.2 128 512 128z" p-id="3127" fill="#0096ff"></path></svg>