<?xml version="1.0" standalone="no"?><!DOCTYPE svg PUBLIC "-//W3C//DTD SVG 1.1//EN" "http://www.w3.org/Graphics/SVG/1.1/DTD/svg11.dtd"><svg t="1592717901103" class="icon" viewBox="0 0 1024 1024" version="1.1" xmlns="http://www.w3.org/2000/svg" p-id="6242" xmlns:xlink="http://www.w3.org/1999/xlink" width="200" height="200"><defs><style type="text/css"></style></defs><path d="M42.666667 512C42.666667 251.733333 251.733333 42.666667 512 42.666667s469.333333 209.066667 469.333333 469.333333-209.066667 469.333333-469.333333 469.333333S42.666667 772.266667 42.666667 512z m76.8 0c0 217.6 174.933333 392.533333 392.533333 392.533333s392.533333-174.933333 392.533333-392.533333-174.933333-392.533333-392.533333-392.533333S119.466667 294.4 119.466667 512z m315.733333 170.666667c-8.533333 0-17.066667-8.533333-25.6-12.8-8.533333-8.533333-8.533333-12.8-8.533333-34.133334V388.266667c0-21.333333 0-21.333333 8.533333-29.866667 12.8-17.066667 34.133333-21.333333 51.2-8.533333l183.466667 128c8.533333 8.533333 17.066667 17.066667 17.066666 29.866666 0 12.8-4.266667 21.333333-12.8 29.866667l-183.466666 136.533333c-4.266667 4.266667-12.8 8.533333-21.333334 8.533334h-8.533333z" p-id="6243" fill="#0096ff"></path></svg>