<?xml version="1.0" standalone="no"?><!DOCTYPE svg PUBLIC "-//W3C//DTD SVG 1.1//EN" "http://www.w3.org/Graphics/SVG/1.1/DTD/svg11.dtd"><svg t="1592715890500" class="icon" viewBox="0 0 1024 1024" version="1.1" xmlns="http://www.w3.org/2000/svg" p-id="3069" xmlns:xlink="http://www.w3.org/1999/xlink" width="200" height="200"><defs><style type="text/css"></style></defs><path d="M682.56 40.32L352 320v384l330.56 279.68A32 32 0 0 0 736 960V64a32 32 0 0 0-53.44-23.68zM832 704a32 32 0 0 1-32-32V352a32 32 0 0 1 64 0v320a32 32 0 0 1-32 32zM960 768a32 32 0 0 1-32-32V288a32 32 0 0 1 64 0v448a32 32 0 0 1-32 32zM288 320H128a96 96 0 0 0-96 96v192a96 96 0 0 0 96 96h160z" fill="#0096ff" p-id="3070"></path></svg>